{"title":"Bun B ft T-Pain - Trillionaire [KingPinVideos]","uid":5799844,"size":93951699,"categoryP":"video","categoryS":"music_videos","magnet":"?xt=urn:btih:cd5fb8a979dea93cb5747895f4df9f9d915b89f4&amp;dn=Bun+B+ft+T-Pain+-+Trillionaire+%5BKingPinVideos%5D&amp;tr=udp%3A%2F%2Ftracker.openbittorrent.com%3A80&amp;tr=udp%3A%2F%2Fopen.demonii.com%3A1337&amp;tr=udp%3A%2F%2Ftracker.coppersurfer.tk%3A6969&amp;tr=udp%3A%2F%2Fexodus.desync.com%3A6969","seeders":0,"leechers":0,"uploader":"KingPinMan","files":4,"time":1283218139,"description":"[img]http://a.imageshack.us/img121/6778/bunbtrillion.png[/img]\n\n[img]http://a.imageshack.us/img33/8500/bunbtrillion1.png[/img]\n\n[code]General\nComplete name                    : Bun B ft T-Pain - Trillionaire [KingPinVideos].mpg\nFormat                           : MPEG-PS\nFile size                        : 89.6 MiB\nDuration                         : 4mn 23s\nOverall bit rate                 : 2 856 Kbps\nWriting library                  : encoded by TMPGEnc 4.0 XPress Version. 4.7.4.299\n\nVideo\nID                               : 224 (0xE0)\nFormat                           : MPEG Video\nFormat version                   : Version 1\nFormat settings, BVOP            : Yes\nFormat settings, Matrix          : Default\nDuration                         : 4mn 23s\nBit rate mode                    : Constant\nBit rate                         : 2 615 Kbps\nNominal bit rate                 : 2 700 Kbps\nWidth                            : 384 pixels\nHeight                           : 208 pixels\nDisplay aspect ratio             : 16:9\nFrame rate                       : 29.970 fps\nResolution                       : 8 bits\nScan type                        : Progressive\nBits/(Pixel*Frame)               : 1.092\nStream size                      : 82.0 MiB (92%)\nWriting library                  : TMPGEnc XPress 4.7.4.299\n\nAudio\nID                               : 192 (0xC0)\nFormat                           : MPEG Audio\nFormat version                   : Version 1\nFormat profile                   : Layer 2\nDuration                         : 4mn 23s\nBit rate mode                    : Constant\nBit rate                         : 128 Kbps\nChannel(s)                       : 2 channels\nSampling rate                    : 48.0 KHz\nStream size                      : 4.02 MiB (4%)[/code]\n\nCheck Us Out On The Web @ www.KingPinVideos.com","torrent":{"xt":"urn:btih:cd5fb8a979dea93cb5747895f4df9f9d915b89f4","amp;dn":"Bun+B+ft+T-Pain+-+Trillionaire+%5BKingPinVideos%5D","amp;tr":["udp%3A%2F%2Ftracker.openbittorrent.com%3A80","udp%3A%2F%2Fopen.demonii.com%3A1337","udp%3A%2F%2Ftracker.coppersurfer.tk%3A6969","udp%3A%2F%2Fexodus.desync.com%3A6969"],"infoHash":"cd5fb8a979dea93cb5747895f4df9f9d915b89f4","infoHashBuffer":{"type":"Buffer","data":[205,95,184,169,121,222,169,60,181,116,120,149,244,223,159,157,145,91,137,244]},"announce":[],"urlList":[]}}